<svg xmlns="http://www.w3.org/2000/svg" viewBox="0 0 1094 1197" width="1094" height="1197">
  <!-- NOTICE: generated by an LLM (sandbox/gen_iceberg_v3.py). Full scene
       matched to iceberg.jpg; underwater mass fitted as 10 polygons
       (<=16 sides) from brightness bands of iceberg-underwater.png. -->
  <defs>
    <linearGradient id="sky" x1="0" y1="0" x2="0" y2="1">
      <stop offset="0%" stop-color="#3a8cdf"/><stop offset="55%" stop-color="#7dbfed"/><stop offset="100%" stop-color="#9fcdf0"/>
    </linearGradient>
    <linearGradient id="sea" x1="0" y1="0" x2="0" y2="1">
      <stop offset="0%" stop-color="#0b377c"/><stop offset="22%" stop-color="#0b2b6e"/><stop offset="55%" stop-color="#0e1c44"/><stop offset="100%" stop-color="#0d0c18"/>
    </linearGradient>
    <linearGradient id="ice" x1="0" y1="0.5" x2="1" y2="0.5">
      <stop offset="0%" stop-color="#bcd6ea"/><stop offset="35%" stop-color="#eef6fc"/><stop offset="60%" stop-color="#ffffff"/><stop offset="100%" stop-color="#c4dcee"/>
    </linearGradient>
    <radialGradient id="glow" cx="53%" cy="46%" r="60%">
      <stop offset="0%" stop-color="#1f7fc8" stop-opacity="0.55"/><stop offset="100%" stop-color="#0b2b6e" stop-opacity="0"/>
    </radialGradient>
    <clipPath id="below"><rect x="0" y="306" width="1094" height="891"/></clipPath>
  </defs>

  <rect x="0" y="0" width="1094" height="306" fill="url(#sky)"/>
  <g fill="white" opacity="0.30">
    <ellipse cx="150" cy="70" rx="180" ry="13"/><ellipse cx="780" cy="86" rx="210" ry="15"/>
    <ellipse cx="940" cy="64" rx="120" ry="9"/><ellipse cx="470" cy="116" rx="80" ry="7"/>
  </g>
  <polygon points="669.0,209.0 649.0,216.0 607.0,170.0 557.0,150.0 508.0,226.0 484.0,230.0 468.0,197.0 444.0,188.0 393.0,274.0 335.0,305.0 532.0,305.0 555.0,278.0 606.0,275.0 603.0,223.0 645.0,251.0" fill="url(#ice)"/>
  <ellipse cx="557" cy="160" rx="26" ry="14" fill="white" opacity="0.9"/>
  <rect x="0" y="306" width="1094" height="891" fill="url(#sea)"/>
  <rect x="0" y="306" width="1094" height="891" fill="url(#glow)" clip-path="url(#below)"/>
  <!-- 14 fitted polygons, outer (dark) to inner (bright) -->
  <g clip-path="url(#below)">
    <polygon points="248.0,329.0 191.0,455.0 197.0,509.0 244.0,570.0 234.0,689.0 299.0,728.0 392.0,926.0 452.0,997.0 619.0,1029.0 720.0,931.0 747.0,762.0 785.0,755.0 813.0,777.0 882.0,722.0 882.0,566.0 801.0,329.0" fill="#0b41a8"/>
    <polygon points="364.0,333.0 411.0,358.0 383.0,416.0 199.0,455.0 241.0,629.0 385.0,677.0 370.0,764.0 331.0,723.0 311.0,767.0 445.0,987.0 616.0,1027.0 717.0,929.0 745.0,764.0 819.0,773.0 865.0,705.0 700.0,359.0" fill="#0c63d8"/>
    <polygon points="528.0,397.0 341.0,492.0 267.0,635.0 410.0,673.0 503.0,554.0 524.0,774.0 571.0,579.0 668.0,592.0 637.0,843.0 573.0,754.0 367.0,834.0 454.0,992.0 613.0,1025.0 743.0,761.0 860.0,720.0 693.0,464.0" fill="#1189e4"/>
    <polygon points="436.0,459.0 301.0,651.0 411.0,668.0 489.0,549.0 522.0,705.0 576.0,568.0 721.0,642.0 642.0,939.0 482.0,837.0 402.0,894.0 612.0,1022.0 735.0,760.0 855.0,728.0 749.0,674.0 782.0,583.0 692.0,482.0" fill="#3ec2ef"/>
    <polygon points="672.0,593.0 595.0,644.0 579.0,668.0 523.0,693.0 500.0,724.0 509.0,855.0 580.0,903.0 609.0,895.0 631.0,937.0 662.0,918.0 664.0,878.0 710.0,866.0 722.0,772.0 733.0,761.0 708.0,721.0 728.0,640.0" fill="#0a75e8"/>
    <polygon points="235.0,645.0 233.0,690.0 255.0,717.0 299.0,727.0 316.0,790.0 340.0,802.0 382.0,873.0 391.0,926.0 484.0,936.0 475.0,891.0 523.0,837.0 513.0,718.0 417.0,661.0 344.0,641.0 311.0,650.0 259.0,634.0" fill="#0e63c3"/>
    <polygon points="192.0,450.0 197.0,509.0 239.0,545.0 235.0,660.0 339.0,657.0 398.0,679.0 426.0,665.0 473.0,558.0 471.0,482.0 444.0,463.0 393.0,459.0 306.0,496.0 270.0,491.0 266.0,471.0 225.0,452.0" fill="#249ee8"/>
    <polygon points="693.0,419.0 598.0,471.0 544.0,445.0 460.0,488.0 459.0,557.0 538.0,568.0 525.0,674.0 553.0,660.0 576.0,576.0 657.0,588.0 727.0,653.0 751.0,611.0 779.0,611.0 795.0,563.0 746.0,530.0" fill="#38bbf1"/>
    <polygon points="684.0,376.0 672.0,346.0 645.0,327.0 390.0,328.0 387.0,339.0 401.0,352.0 386.0,464.0 404.0,482.0 435.0,476.0 468.0,498.0 542.0,462.0 585.0,487.0 603.0,487.0 619.0,471.0 671.0,460.0 686.0,431.0" fill="#1070d8"/>
    <polygon points="733.0,827.0 705.0,825.0 694.0,857.0 650.0,865.0 648.0,896.0 613.0,876.0 589.0,887.0 507.0,840.0 456.0,871.0 453.0,913.0 395.0,929.0 468.0,1006.0 618.0,1030.0 631.0,1001.0 682.0,988.0 720.0,934.0" fill="#3ec0eb"/>
    <polygon points="646.0,327.0 673.0,419.0 690.0,437.0 690.0,474.0 715.0,490.0 733.0,542.0 785.0,565.0 802.0,611.0 822.0,613.0 852.0,643.0 876.0,643.0 882.0,564.0 871.0,554.0 830.0,431.0 814.0,414.0 803.0,328.0" fill="#0b3b99"/>
    <polygon points="674.0,580.0 659.0,571.0 627.0,574.0 591.0,557.0 556.0,572.0 550.0,554.0 499.0,538.0 464.0,546.0 436.0,578.0 407.0,671.0 470.0,719.0 514.0,730.0 535.0,707.0 591.0,681.0 609.0,656.0 677.0,608.0" fill="#0b68e0"/>
    <polygon points="248.0,328.0 241.0,362.0 203.0,413.0 193.0,463.0 230.0,474.0 233.0,511.0 244.0,516.0 281.0,505.0 315.0,505.0 333.0,492.0 393.0,478.0 407.0,445.0 404.0,404.0 418.0,390.0 413.0,346.0 393.0,328.0" fill="#0b4ab4"/>
    <polygon points="794.0,569.0 765.0,597.0 740.0,596.0 696.0,679.0 692.0,729.0 716.0,755.0 700.0,807.0 710.0,837.0 733.0,824.0 754.0,756.0 792.0,757.0 812.0,779.0 882.0,723.0 882.0,615.0 858.0,627.0" fill="#2d8bc7"/>
  </g>
  <rect x="0" y="302" width="1094" height="7" fill="#08284f" opacity="0.85"/>
  <g stroke="#9fd2ec" stroke-width="1.6" opacity="0.35">
    <line x1="40" y1="314" x2="300" y2="314"/><line x1="700" y1="312" x2="1040" y2="312"/>
  </g>
</svg>
