<svg xmlns="http://www.w3.org/2000/svg" viewBox="0 0 1094 1197" width="1094" height="1197">
  <!-- NOTICE: generated by an LLM (sandbox/gen_iceberg_v4.py). Full scene
       matched to iceberg.jpg; underwater mass fitted as 35
       polygons (911 sides total, uncapped) from k=32 color regions
       of iceberg-underwater.png (seed 97624). Clouds=ovals, underwater
       background=gradient, everything else=polygons. -->
  <defs>
    <linearGradient id="sky" x1="0" y1="0" x2="0" y2="1">
      <stop offset="0%" stop-color="#3a8cdf"/><stop offset="55%" stop-color="#7dbfed"/><stop offset="100%" stop-color="#9fcdf0"/>
    </linearGradient>
    <linearGradient id="sea" x1="0" y1="0" x2="0" y2="1">
      <stop offset="0%" stop-color="#0b377c"/><stop offset="22%" stop-color="#0b2b6e"/><stop offset="55%" stop-color="#0e1c44"/><stop offset="100%" stop-color="#0d0c18"/>
    </linearGradient>
    <linearGradient id="ice" x1="0" y1="0.5" x2="1" y2="0.5">
      <stop offset="0%" stop-color="#bcd6ea"/><stop offset="35%" stop-color="#eef6fc"/><stop offset="60%" stop-color="#ffffff"/><stop offset="100%" stop-color="#c4dcee"/>
    </linearGradient>
    <radialGradient id="glow" cx="53%" cy="46%" r="60%">
      <stop offset="0%" stop-color="#1f7fc8" stop-opacity="0.55"/><stop offset="100%" stop-color="#0b2b6e" stop-opacity="0"/>
    </radialGradient>
    <clipPath id="below"><rect x="0" y="306" width="1094" height="891"/></clipPath>
  </defs>

  <rect x="0" y="0" width="1094" height="306" fill="url(#sky)"/>
  <g fill="white" opacity="0.30">
    <ellipse cx="150" cy="70" rx="180" ry="13"/><ellipse cx="780" cy="86" rx="210" ry="15"/>
    <ellipse cx="940" cy="64" rx="120" ry="9"/><ellipse cx="470" cy="116" rx="80" ry="7"/>
  </g>
  <polygon points="669.0,209.0 649.0,216.0 607.0,170.0 557.0,150.0 508.0,226.0 484.0,230.0 468.0,197.0 444.0,188.0 393.0,274.0 335.0,305.0 532.0,305.0 555.0,278.0 606.0,275.0 603.0,223.0 645.0,251.0" fill="url(#ice)"/>
  <ellipse cx="557" cy="160" rx="26" ry="14" fill="white" opacity="0.9"/>
  <rect x="0" y="306" width="1094" height="891" fill="url(#sea)"/>
  <rect x="0" y="306" width="1094" height="891" fill="url(#glow)" clip-path="url(#below)"/>
  <!-- 35 fitted polygons, outer (dark) to inner (bright) -->
  <g clip-path="url(#below)">
    <polygon points="248.0,329.0 191.0,455.0 197.0,509.0 244.0,570.0 234.0,689.0 255.0,717.0 299.0,728.0 316.0,789.0 382.0,873.0 392.0,926.0 452.0,997.0 619.0,1029.0 635.0,999.0 682.0,988.0 720.0,931.0 747.0,762.0 785.0,755.0 813.0,777.0 882.0,722.0 882.0,566.0 814.0,414.0 801.0,329.0" fill="#0b41a8"/>
    <polygon points="364.0,333.0 411.0,358.0 383.0,416.0 358.0,426.0 325.0,407.0 199.0,455.0 209.0,521.0 250.0,556.0 241.0,629.0 385.0,677.0 370.0,764.0 352.0,766.0 331.0,723.0 311.0,767.0 445.0,987.0 616.0,1027.0 634.0,999.0 680.0,986.0 717.0,929.0 745.0,764.0 778.0,753.0 819.0,773.0 860.0,737.0 865.0,705.0 809.0,664.0 826.0,616.0 797.0,612.0 798.0,555.0 741.0,517.0 700.0,359.0 668.0,370.0 605.0,332.0" fill="#0c63d8"/>
    <polygon points="528.0,397.0 490.0,439.0 426.0,438.0 341.0,492.0 267.0,635.0 410.0,673.0 452.0,575.0 503.0,554.0 520.0,584.0 495.0,771.0 524.0,774.0 562.0,691.0 571.0,579.0 668.0,592.0 703.0,650.0 669.0,807.0 637.0,843.0 588.0,832.0 573.0,754.0 523.0,830.0 492.0,804.0 453.0,836.0 426.0,792.0 367.0,834.0 400.0,931.0 454.0,992.0 613.0,1025.0 715.0,928.0 743.0,761.0 821.0,770.0 860.0,720.0 789.0,697.0 788.0,569.0 654.0,430.0 583.0,447.0" fill="#1189e4"/>
    <polygon points="436.0,459.0 398.0,510.0 354.0,519.0 301.0,651.0 411.0,668.0 449.0,573.0 489.0,549.0 542.0,570.0 522.0,705.0 576.0,568.0 673.0,580.0 721.0,642.0 691.0,710.0 728.0,755.0 706.0,851.0 660.0,872.0 642.0,939.0 612.0,896.0 580.0,901.0 482.0,837.0 457.0,854.0 459.0,920.0 421.0,902.0 428.0,861.0 402.0,894.0 405.0,934.0 460.0,990.0 612.0,1022.0 713.0,927.0 735.0,760.0 817.0,769.0 855.0,728.0 784.0,719.0 749.0,674.0 788.0,630.0 782.0,583.0 692.0,482.0 629.0,471.0 599.0,493.0 532.0,444.0" fill="#3ec2ef"/>
    <polygon points="700.0,478.0 667.0,472.0 645.0,477.0 639.0,465.0 628.0,462.0 618.0,466.0 613.0,478.0 600.0,480.0 579.0,455.0 559.0,457.0 548.0,442.0 531.0,444.0 533.0,506.0 525.0,524.0 531.0,533.0 529.0,558.0 537.0,573.0 535.0,606.0 519.0,644.0 525.0,673.0 541.0,674.0 552.0,660.0 553.0,638.0 567.0,618.0 574.0,577.0 593.0,574.0 626.0,591.0 652.0,586.0 670.0,590.0 684.0,582.0 685.0,566.0 703.0,560.0 730.0,522.0 725.0,506.0 710.0,502.0" fill="#36c2f4"/>
    <polygon points="713.0,518.0 666.0,578.0 669.0,600.0 685.0,615.0 689.0,636.0 712.0,643.0 698.0,686.0 722.0,711.0 711.0,719.0 705.0,738.0 709.0,745.0 733.0,747.0 747.0,759.0 790.0,755.0 812.0,779.0 844.0,763.0 861.0,733.0 848.0,723.0 834.0,730.0 805.0,724.0 791.0,731.0 768.0,685.0 783.0,681.0 786.0,666.0 779.0,654.0 806.0,630.0 792.0,605.0 802.0,586.0 790.0,560.0 776.0,558.0 763.0,543.0 749.0,543.0 729.0,519.0" fill="#53c1eb"/>
    <polygon points="489.0,542.0 467.0,547.0 444.0,564.0 411.0,656.0 403.0,662.0 383.0,659.0 374.0,668.0 371.0,705.0 377.0,747.0 394.0,753.0 397.0,771.0 408.0,775.0 418.0,771.0 426.0,781.0 451.0,790.0 461.0,787.0 484.0,759.0 497.0,732.0 504.0,700.0 513.0,567.0 506.0,548.0" fill="#0a4fd0"/>
    <polygon points="537.0,443.0 511.0,435.0 501.0,439.0 495.0,452.0 450.0,459.0 445.0,439.0 436.0,433.0 425.0,434.0 417.0,443.0 423.0,473.0 399.0,499.0 402.0,511.0 382.0,511.0 362.0,528.0 357.0,544.0 370.0,564.0 375.0,585.0 399.0,593.0 418.0,633.0 437.0,632.0 457.0,576.0 473.0,562.0 495.0,556.0 514.0,563.0 543.0,560.0 550.0,494.0 546.0,453.0" fill="#3fcaf6"/>
    <polygon points="500.0,679.0 491.0,682.0 487.0,689.0 477.0,736.0 450.0,772.0 446.0,790.0 460.0,834.0 470.0,837.0 485.0,830.0 496.0,846.0 534.0,859.0 553.0,848.0 568.0,846.0 583.0,823.0 594.0,827.0 603.0,824.0 623.0,801.0 623.0,775.0 607.0,750.0 597.0,745.0 573.0,717.0 558.0,693.0 543.0,688.0 528.0,691.0" fill="#0a75e8"/>
    <polygon points="651.0,571.0 629.0,578.0 594.0,634.0 583.0,629.0 573.0,633.0 552.0,674.0 550.0,712.0 554.0,720.0 609.0,782.0 622.0,781.0 632.0,773.0 707.0,644.0 702.0,610.0 686.0,594.0 681.0,577.0" fill="#0a6aeb"/>
    <polygon points="820.0,425.0 744.0,462.0 737.0,483.0 746.0,505.0 740.0,529.0 751.0,540.0 761.0,572.0 776.0,574.0 783.0,587.0 774.0,592.0 771.0,605.0 790.0,630.0 794.0,666.0 808.0,689.0 824.0,695.0 837.0,685.0 829.0,659.0 839.0,654.0 846.0,633.0 842.0,612.0 845.0,592.0 837.0,581.0 838.0,570.0 844.0,561.0 850.0,523.0 860.0,518.0 860.0,509.0 849.0,497.0 846.0,473.0 830.0,431.0" fill="#0b3f98"/>
    <polygon points="616.0,327.0 613.0,341.0 617.0,348.0 639.0,354.0 659.0,378.0 691.0,388.0 697.0,405.0 714.0,412.0 727.0,476.0 753.0,477.0 829.0,439.0 829.0,429.0 818.0,422.0 812.0,408.0 808.0,367.0 811.0,360.0 801.0,345.0 803.0,328.0" fill="#0b3c9e"/>
    <polygon points="578.0,786.0 572.0,794.0 562.0,833.0 542.0,835.0 523.0,852.0 533.0,890.0 540.0,900.0 552.0,903.0 572.0,918.0 591.0,918.0 606.0,911.0 626.0,949.0 649.0,950.0 667.0,921.0 667.0,880.0 675.0,874.0 686.0,877.0 709.0,863.0 712.0,848.0 702.0,835.0 669.0,819.0 658.0,805.0 643.0,805.0 617.0,790.0 600.0,800.0 594.0,787.0" fill="#0b85eb"/>
    <polygon points="498.0,544.0 492.0,552.0 495.0,621.0 488.0,686.0 493.0,694.0 526.0,708.0 562.0,707.0 570.0,694.0 569.0,678.0 583.0,656.0 597.0,661.0 607.0,657.0 612.0,637.0 639.0,595.0 642.0,583.0 638.0,576.0 593.0,557.0 562.0,563.0 555.0,573.0 549.0,554.0 524.0,545.0" fill="#0b80ed"/>
    <polygon points="389.0,817.0 386.0,829.0 396.0,839.0 393.0,852.0 397.0,861.0 384.0,875.0 383.0,896.0 392.0,925.0 417.0,928.0 433.0,937.0 449.0,933.0 464.0,943.0 480.0,946.0 492.0,943.0 497.0,935.0 492.0,915.0 481.0,906.0 490.0,904.0 516.0,927.0 533.0,925.0 537.0,904.0 544.0,895.0 541.0,856.0 533.0,841.0 519.0,832.0 506.0,831.0 496.0,812.0 480.0,811.0 456.0,826.0 443.0,818.0 438.0,793.0 428.0,789.0 418.0,793.0 415.0,813.0" fill="#149be2"/>
    <polygon points="609.0,331.0 600.0,340.0 601.0,353.0 589.0,351.0 579.0,355.0 574.0,381.0 562.0,406.0 543.0,429.0 526.0,430.0 522.0,445.0 527.0,453.0 538.0,455.0 551.0,471.0 568.0,472.0 587.0,494.0 614.0,496.0 620.0,482.0 626.0,479.0 631.0,492.0 662.0,498.0 681.0,474.0 676.0,458.0 659.0,455.0 669.0,433.0 669.0,369.0 652.0,343.0 621.0,331.0" fill="#0c70e0"/>
    <polygon points="233.0,635.0 235.0,669.0 231.0,686.0 243.0,694.0 255.0,717.0 296.0,724.0 308.0,763.0 317.0,760.0 325.0,743.0 334.0,738.0 339.0,746.0 337.0,765.0 342.0,777.0 357.0,780.0 376.0,771.0 391.0,743.0 388.0,700.0 392.0,675.0 384.0,658.0 364.0,653.0 340.0,640.0 311.0,650.0 255.0,629.0" fill="#0a3997"/>
    <polygon points="534.0,1013.0 538.0,1018.0 578.0,1018.0 591.0,1013.0 605.0,1028.0 618.0,1030.0 625.0,1024.0 631.0,1001.0 654.0,991.0 682.0,988.0 698.0,963.0 692.0,941.0 683.0,938.0 672.0,943.0 667.0,936.0 684.0,928.0 687.0,916.0 683.0,907.0 673.0,903.0 664.0,906.0 658.0,919.0 661.0,931.0 641.0,938.0 632.0,930.0 625.0,907.0 615.0,897.0 600.0,895.0 586.0,903.0 564.0,895.0 555.0,898.0 539.0,954.0 543.0,976.0 533.0,995.0" fill="#5bd2ee"/>
    <polygon points="548.0,1018.0 550.0,998.0 561.0,978.0 556.0,959.0 568.0,903.0 563.0,893.0 549.0,883.0 545.0,871.0 536.0,868.0 526.0,872.0 523.0,884.0 527.0,897.0 521.0,907.0 517.0,900.0 500.0,892.0 483.0,893.0 478.0,909.0 491.0,920.0 480.0,929.0 454.0,918.0 436.0,923.0 420.0,912.0 395.0,922.0 393.0,927.0 403.0,943.0 422.0,958.0 455.0,999.0 468.0,1006.0 491.0,1006.0 507.0,1013.0" fill="#38bdea"/>
    <polygon points="329.0,724.0 309.0,740.0 304.0,750.0 307.0,774.0 316.0,790.0 327.0,791.0 340.0,802.0 352.0,834.0 382.0,873.0 385.0,902.0 394.0,901.0 401.0,892.0 399.0,864.0 409.0,852.0 411.0,833.0 422.0,837.0 435.0,833.0 456.0,846.0 468.0,840.0 472.0,819.0 459.0,776.0 439.0,768.0 427.0,743.0 417.0,739.0 406.0,745.0 384.0,744.0 355.0,763.0 345.0,748.0 349.0,739.0 346.0,726.0" fill="#0e68c6"/>
    <polygon points="433.0,636.0 427.0,613.0 414.0,586.0 395.0,581.0 388.0,572.0 380.0,545.0 370.0,541.0 349.0,549.0 339.0,563.0 340.0,571.0 336.0,576.0 324.0,569.0 309.0,575.0 301.0,584.0 284.0,623.0 267.0,630.0 263.0,643.0 268.0,651.0 303.0,665.0 317.0,665.0 338.0,656.0 355.0,667.0 404.0,679.0 418.0,674.0 428.0,663.0" fill="#44c6f1"/>
    <polygon points="708.0,624.0 692.0,629.0 670.0,677.0 608.0,774.0 609.0,796.0 621.0,814.0 649.0,821.0 657.0,833.0 686.0,844.0 696.0,841.0 700.0,834.0 708.0,772.0 717.0,751.0 710.0,729.0 692.0,712.0 710.0,694.0 730.0,649.0 725.0,630.0" fill="#0a72e8"/>
    <polygon points="311.0,392.0 281.0,386.0 267.0,387.0 260.0,379.0 251.0,376.0 236.0,384.0 228.0,380.0 222.0,386.0 208.0,411.0 203.0,413.0 206.0,415.0 201.0,417.0 192.0,445.0 191.0,457.0 195.0,469.0 192.0,498.0 207.0,526.0 256.0,520.0 273.0,513.0 291.0,499.0 300.0,476.0 298.0,448.0 306.0,444.0 320.0,412.0 320.0,404.0" fill="#0b52c2"/>
    <polygon points="323.0,388.0 311.0,391.0 283.0,453.0 283.0,472.0 278.0,488.0 281.0,506.0 293.0,514.0 284.0,523.0 280.0,537.0 299.0,557.0 315.0,564.0 326.0,561.0 335.0,545.0 336.0,521.0 332.0,514.0 341.0,501.0 364.0,490.0 380.0,498.0 391.0,497.0 406.0,472.0 406.0,463.0 394.0,432.0 379.0,418.0 363.0,417.0 359.0,407.0 340.0,393.0" fill="#0a5ed7"/>
    <polygon points="619.0,342.0 603.0,338.0 595.0,327.0 498.0,331.0 486.0,338.0 473.0,340.0 469.0,353.0 475.0,368.0 478.0,397.0 492.0,456.0 502.0,460.0 514.0,453.0 528.0,453.0 537.0,445.0 554.0,443.0 561.0,428.0 576.0,416.0 589.0,388.0 592.0,371.0 605.0,370.0 619.0,361.0 622.0,355.0" fill="#0d67d1"/>
    <polygon points="477.0,341.0 444.0,340.0 433.0,334.0 422.0,338.0 419.0,344.0 422.0,356.0 434.0,361.0 417.0,374.0 409.0,394.0 388.0,413.0 380.0,432.0 380.0,444.0 395.0,481.0 410.0,486.0 421.0,483.0 434.0,467.0 438.0,474.0 449.0,477.0 503.0,464.0 506.0,435.0 495.0,393.0 492.0,364.0 485.0,347.0" fill="#0b6cde"/>
    <polygon points="660.0,366.0 652.0,376.0 652.0,438.0 647.0,459.0 653.0,469.0 663.0,471.0 673.0,482.0 687.0,487.0 698.0,521.0 712.0,522.0 719.0,536.0 729.0,542.0 736.0,555.0 753.0,556.0 759.0,548.0 755.0,530.0 761.0,509.0 760.0,489.0 740.0,466.0 739.0,440.0 732.0,410.0 725.0,397.0 710.0,391.0 706.0,374.0 690.0,372.0 675.0,363.0" fill="#0b61d7"/>
    <polygon points="440.0,469.0 427.0,459.0 411.0,469.0 391.0,468.0 383.0,479.0 366.0,473.0 332.0,484.0 311.0,508.0 301.0,496.0 291.0,493.0 234.0,511.0 230.0,525.0 244.0,539.0 259.0,543.0 272.0,534.0 284.0,540.0 303.0,532.0 310.0,520.0 319.0,528.0 312.0,562.0 302.0,566.0 298.0,582.0 307.0,591.0 323.0,588.0 339.0,594.0 349.0,589.0 358.0,557.0 392.0,526.0 404.0,529.0 417.0,524.0 421.0,515.0 418.0,503.0 436.0,486.0" fill="#0e95e9"/>
    <polygon points="848.0,504.0 839.0,507.0 833.0,518.0 827.0,557.0 820.0,567.0 820.0,585.0 828.0,598.0 825.0,613.0 829.0,629.0 825.0,643.0 812.0,655.0 812.0,669.0 823.0,685.0 831.0,688.0 839.0,701.0 857.0,715.0 856.0,728.0 863.0,736.0 882.0,723.0 882.0,564.0 871.0,554.0 871.0,537.0 861.0,525.0 860.0,509.0" fill="#0b2d66"/>
    <polygon points="740.0,774.0 723.0,775.0 713.0,786.0 710.0,800.0 698.0,810.0 692.0,829.0 695.0,852.0 686.0,859.0 675.0,856.0 663.0,860.0 651.0,879.0 650.0,916.0 641.0,923.0 638.0,939.0 642.0,946.0 653.0,948.0 661.0,960.0 668.0,962.0 681.0,955.0 694.0,960.0 702.0,958.0 708.0,941.0 720.0,934.0 723.0,864.0 733.0,847.0 731.0,834.0 741.0,798.0" fill="#40c2ee"/>
    <polygon points="201.0,512.0 208.0,527.0 234.0,538.0 239.0,545.0 237.0,554.0 244.0,576.0 233.0,624.0 235.0,649.0 243.0,651.0 259.0,648.0 277.0,640.0 295.0,637.0 310.0,605.0 316.0,576.0 326.0,563.0 323.0,551.0 285.0,525.0 268.0,522.0 255.0,526.0 231.0,506.0" fill="#0b66d5"/>
    <polygon points="222.0,391.0 226.0,398.0 235.0,401.0 250.0,396.0 255.0,401.0 267.0,404.0 281.0,403.0 291.0,407.0 314.0,408.0 326.0,401.0 362.0,357.0 365.0,344.0 361.0,337.0 344.0,328.0 248.0,328.0 246.0,348.0 241.0,362.0 232.0,377.0 222.0,386.0" fill="#0b398e"/>
    <polygon points="394.0,328.0 369.0,328.0 363.0,336.0 351.0,342.0 338.0,355.0 314.0,389.0 317.0,401.0 344.0,417.0 352.0,429.0 359.0,431.0 364.0,429.0 374.0,433.0 400.0,426.0 407.0,417.0 403.0,404.0 423.0,398.0 430.0,388.0 430.0,380.0 423.0,370.0 430.0,365.0 434.0,357.0 431.0,345.0 423.0,339.0 406.0,337.0 397.0,333.0" fill="#0d4cb2"/>
    <polygon points="753.0,688.0 755.0,703.0 768.0,724.0 771.0,734.0 781.0,745.0 788.0,747.0 806.0,742.0 814.0,745.0 824.0,743.0 837.0,747.0 846.0,744.0 850.0,738.0 862.0,739.0 873.0,727.0 875.0,709.0 872.0,703.0 848.0,683.0 822.0,677.0 816.0,665.0 806.0,657.0 799.0,655.0 792.0,657.0 781.0,665.0 764.0,671.0" fill="#168fda"/>
    <polygon points="385.0,338.0 388.0,344.0 398.0,348.0 406.0,345.0 419.0,349.0 430.0,345.0 442.0,350.0 451.0,347.0 461.0,347.0 469.0,350.0 482.0,346.0 492.0,348.0 497.0,346.0 507.0,347.0 516.0,344.0 520.0,337.0 518.0,328.0 386.0,328.0" fill="#5ea9c7"/>
  </g>
  <rect x="0" y="302" width="1094" height="7" fill="#08284f" opacity="0.85"/>
  <g stroke="#9fd2ec" stroke-width="1.6" opacity="0.35">
    <line x1="40" y1="314" x2="300" y2="314"/><line x1="700" y1="312" x2="1040" y2="312"/>
  </g>
</svg>
